<?xml version="1.0" encoding="UTF-8" standalone="no"?>
<svg id="svg2" xmlns:rdf="http://www.w3.org/1999/02/22-rdf-syntax-ns#" xmlns="http://www.w3.org/2000/svg" height="3840pt" width="2032pt" version="1.1" xmlns:cc="http://creativecommons.org/ns#" xmlns:dc="http://purl.org/dc/elements/1.1/" viewBox="0 0 2032 3840">
<path id="rect4228" d="m1277.8 1.2953c-20.093-0.069793-40.206 0.80688-60.264 2.6641-33.39-0.33-66.52 6.1609-98.23 16.361-82.2 28.05-155.15 77.529-222.1 131.91-21.3 16.6-40.02 36.39-62.35 51.62-65.74 38.8-131.55 79.029-187.22 131.81-68.19 62.28-119.59 143.63-141.1 233.88-4.1 18.78-11.671 37.85-9.5609 57.33 2.65 8.86 12.19-0.67907 15.77-4.1391 46.34-53.42 79.98-116.8 128.57-168.42 15.86-14.94 34.26-26.85 52.75-38.25 72.06-43.23 149.16-79.13 230.18-101.83 59.32-17.34 120.76-1.7103 180.83 1.4297 44.52 25.63 92.691 68.839 86.161 125.49-53.39 13.73-106.41 30.031-156.25 53.841-69.44 33.05-135.31 85.031-163.01 159.04-4.57 0.4-9.079 1.4497-13.389 2.9797-54.15 9.51-106.65 35.659-143.55 77.009-60.99 67.18-74.93 167.71-47.72 252.52-0.16 11.91-5.3206 23.461-6.0406 35.441-11.51 59.35-21.619 119.03-30.709 178.81-14.37 99.37-31.29 199.74-24.85 300.45-35.96 37.6-62.02 83.011-87.38 128.09-48.67 89.49-99.431 177.95-156.21 262.6-22.94 33.77-35.39 73.629-59.97 106.47-22.51-2.48-45.009-5.3891-67.319-9.3391 0.58-479.75-0.3612-959.54 0.4688-1439.3 10.13-14.9 22.46-29.391 25.75-47.731 17.03-65.42 51.251-124.38 76.211-186.79 7.9-19.73 15.09-42.78 5.7297-63.23-1.215-3.16-3.795-4.5581-6.5687-4.6344-2.7738-0.0762-5.7413 1.1688-7.7313 3.2938-16.54 16.91-23.58 40.07-32.62 61.38-20.01 48.04-54.049 88.14-89.709 125.3-9.34 11.48-24.61 24.771-19.87 41.161 3.63 12.44-1.0794 25.24-6.6094 36.35-22.92 41.16-57.301 75.44-76.111 119-2.96 6.31 0.4597 14.249 8.0797 12.839 41.28-7.75 71.53-43.849 100.07-69.289 0.22 469.21-0.09 938.48 0.15 1407.7-16.73-3.77-33.09-9.6603-48.9-16.47-1.7142-0.1346-3.4215-0.191-5.1235-0.1797-34.607 0.2296-66.811 28.871-101.89 15.48-15.75-9.69-41.711-13.479-52.541 4.8109-5.12 9.7 3.6497 19.899 12.48 23.219 31.67 13.13 65.951 17.89 98.881 26.65-32.23 11.33-64.591 23.92-92.831 43.47-13.89 8.88-20.89 31.07-8 43.77 11.87 12.1 29.671 9.7106 44.931 9.5406 23.3 35.33 46.509 71.04 74.719 102.75 10.26 10.16 20.001 22.66 34.541 26.65 16.82 1.66 30.83-9.6709 42.83-19.911 1.93 405.46 0.2406 811.08 0.8406 1216.6-34.36 4.35-67.25 22.939-86.02 52.459-20.89 31.09-25.2 72.489-11.18 107.21 9.52 26.25 31.73 44.761 45.18 68.791 14.26 24.36 31.42 52.24 23.87 81.58-3.05 10.96-20.901 4.65-21.891 16.7-2.5 10.09 9.1697 16.881 17.78 12.761 22.57-3.89 32.731-30.891 28.731-51.381-5.68-41.01-30.401-76.079-54.941-108.21-15.69-18.13-25.589-42.051-23.609-66.291-0.12-41.68 32.119-80.01 72.639-88.55 43.84-11.31 93.02 14.73 108.68 57.12 13.52 32.06 5.9103 70.79-16.63 96.9-25.55 32.92-50.87 69.411-56.28 111.81-1.46 19.91 6.7003 44.389 28.87 48.669 8.78 4.05 20.99-3.1588 18.2-13.369-1.84-8.94-12.94-8.19-19.32-11.6-9.28-13.95-3.86-31.681 0.8-46.261 12.09-31.44 32.65-58.509 53.02-84.959 30.66-42.33 26.78-105-8.2297-143.61-19.38-22.27-47.341-36.499-76.641-39.639-0.03-413.83-0.1906-827.67 0.08-1241.5 0.25-0.29 0.7406-0.8797 0.9906-1.1797 68.12-22.59 134.12-68.821 161.95-137.09 3.68 1.21 6.5194-0.6794 8.3094-3.5594 28.28-37.75 57.02-75.231 84.73-113.36 92.5-122.83 183.82-246.83 271.89-372.98 24.4-39.08 56.969-75.219 67.909-121.11 20.29-80.77 30.901-163.54 42.141-245.94 6.46-50.66 12.82-101.35 18.12-152.15 11.38 31.27 24.55 61.84 37.55 92.48 29.04 69.43 43.379 143.81 55.209 217.8 13.18 86.22 24.12 172.92 30.92 259.85l0.1906 0.8406c-9.44 51.19-16.251 102.82-23.981 154.29-31.73 224.84-61.61 449.96-90.83 675.14-2.54 8.12 7.981 6.6503 12.861 8.7703-10.74 56.01-22.81 112.11-25.97 169.21 0.6 16.63-0.36096 35.46 10.139 49.58 9.81 11.62 10.261 27.48 13.361 41.65 8.89 71.5 7.3497 143.69 7.4297 215.6-2.91 136.75-10.52 273.49-25.53 409.49-7.88 64.9-15.921 130.05-32.541 193.41-0.75 4.95-5.6594 7.0909-9.1594 9.9609-54.1 40.25-106.73 83.36-165.9 116.07-59.82 23.38-119.86 58.149-186.2 52.619-18.82 2.95-23.781 27.901-12.411 41.181 19.76 24.92 54.18 29.629 83.97 31.969 114.5 5.29 229.3 12.451 343.85 5.4406 43.46-8.95 89.91 6.5806 131.82-11.209 25.72-10.88 36.43-40.011 37.08-66.041 1.42-65.77-24.28-128.18-52.8-186.15 53.88-186.09 100.35-374.84 127.71-566.81 13.28-101.25 23.13-204.27 9.1797-305.97 6.04-61.83 18.919-122.75 28.889-183.97 28.99-0.93 58.041-1.3303 87.011-3.1203 22.69 69.05 43.51 138.91 70.67 206.43 7.79 19.38 16.749 38.6 30.419 54.6 19.63 36.27 32.51 75.68 46.72 114.27 59.88 175.17 110.88 353.48 151.99 534 12.29 57.42 24.7 115.13 28.97 173.82 0.56 2.51-2.2203 3.8303-3.8703 5.1703-57 38.32-112.34 80.079-174.04 110.71-50.1 18.69-100.17 40.15-153.7 46.38-15 3.42-31.219-7.2294-45.089 1.8406-13.96 9-12.5 29.831-2.35 41.191 17.94 20.18 45.629 26.669 71.219 30.759 74.91 7.81 149.97 14.18 225.15 18.85 49.37 1.62 98.921 6.9703 148.18 1.2703 37.97-0.53 78.459 10.909 114.62-5.2406 33.28-16.15 39.82-59.21 34.42-92.28-10.46-73.24-41.18-141.68-73.3-207.64 0.13-195.49-7.9797-392.15-40.68-585.36-11.32-65.41-25.87-130.48-47.77-193.22-16.44-46.81-37.11-92.89-68.25-131.87 4.78-48.18-1.5091-96.499-5.3891-144.52 3.77-0.1 7.3888-0.8212 11.169-1.2312 3.19 0.47 8.9312-0.69 5.7312-5.75-2.56-26.15-6.4003-52.129-9.6203-78.189 39.36-6.03 71.299-34.15 101.16-58.55-0.96 5.54-2.1591 11.05-3.3891 16.57-26.43 23.55-34.731 61.979-24.661 95.319-3.25 13.96-7.2891 37.121 12.211 39.461 12.55 34.98 31.719 68.83 59.709 93.83-22.08 1.96-44.419 4.3003-66.609 3.0703-13.91-2.29-27.681-17.181-42.161-11.961-1.17 16.68-1.1591 34.041 0.9609 50.791 0.12 5.14 5.9697 8.85 10.73 6.5 34.86-14.25 73.709-12.04 110.69-13.87-5.01 69.47-3.5894 140.52-15.059 208.85 12.84 12.58 34.419 2.4197 50.259 5.1297 12.82-1.07 40.92 3.6712 39.87-17.019-13.2-65.07-17.909-131.63-24.139-197.65 33.61 1.67 67.509 2.2397 100.74 8.0797 9.01 1.68 17.451 9.71 27.041 5.5 6.94-13.64 1.4697-30.01 3.7797-44.55 0.03-4.11 2.0903-11.931-3.8297-13.141-17.64 0.14-31.46 15.97-49.45 13.87-18.12-0.56-36.191-2.07-54.241-3.5 28.9-26.16 47.821-61.38 61.261-97.52 9.1-27.28 19.669-57.68 11.939-86.12 9.01-48.21 16.101-97.27 14.461-146.4-0.16-23.55-11.45-44.93-9.7-68.63-0.72-48.56-1.6209-98.159-4.0109-146.06 1.19-22.58-1.5891-45.1-0.8391-67.68-9.15-256.32-8.3606-515.47-16.891-770.18-1.68-61.68-3.5403-123.56-7.7703-185.05 1.83-7.82 0.3103-16.129 0.7703-24.069 49.6 0.24 99.239 0.0994 148.86 0.0594 2.37-194.69-28.579-394.06-118.07-568.79-46.5-90.75-108.6-174.11-185.6-241.25-122.4-108.61-284.8-171.99-448.4-172.55zm-57.133 3.2203c1.8373 0.37351 3.6306 0.83477 5.3938 1.3562-1.7628-0.52133-3.5569-0.98283-5.3938-1.3562zm391.5 1030.3c2.81 6.1 4.0397 12.729 5.8797 19.169 15.31 55.42 29.63 111.12 43.02 167.04 19.26 88.48 39.53 177.77 39.87 268.76-4.87 49.1-0.2003 98.351 3.8797 147.33 12.76 131.11 30.83 261.64 50.2 391.92 6.49 44.29 12.56 88.681 20.32 132.78-0.73 1.89-1.0703 4.33-3.4203 5-32.13 17.4-67.199 28.839-98.809 47.289-8.81 5.45-19.401 11.9-20.841 23.2-5.64 26.43-13.419 52.451-17.459 79.191-13.66 15.08-27.191 30.41-40.691 45.58-41.28-277.88-106.25-551.65-172.92-824.35 32.42-79.3 66.401-158.56 89.141-241.45 27.43-89.53 65.55-175.28 101.83-261.46zm-1448.2 992.4c0.7851-0.01 1.5691 0 2.3516 0.03-0.7824-0.025-1.5666-0.036-2.3516-0.028-0.1025 0.001-0.2052 0.01-0.3077 0.01 0.1025 0 0.2053-0.01 0.3077-0.01zm1573.7 407.03c40.97 7.31 82.66 11.48 124.35 10.8-10.28 34.89-28.229 75.429-65.159 88.009-41.58 4.23-62.2-42.549-76.15-74.309 5.11-8.44 8.8194-18.46 16.959-24.5z" fill="#ffda1e"/>
<g id="g4196" transform="translate(-3200)">
<path id="path4" d="m4477.8 1.2953c-20.093-0.069793-40.206 0.80688-60.264 2.6641 33.78 5.14 55.181 35.87 71.131 63.35 32.26 59.89 49.129 126.61 62.009 193 9.06 52.89 17.38 106.82 12.62 160.56-37.97 29.82-78.211 57.609-111.46 92.989-11.88 13.48-24.909 28.651-24.239 47.841-1.78 42.16 0.7991 84.39 2.2391 126.53 2 67.91 7.1309 135.67 11.261 203.47 4.46 32.89 3.4194 67.601 17.859 98.241 8.73 17.05 30.62 15.51 46.93 16.13 34.74-1.6 69.891-0.4703 104.21-6.9203 19.96-4.48 30.72-24.86 29.85-44.18-1.61-42.99-1.5303-86.12-0.1203-129.1 0.7-64.24 1.7603-128.46 3.3203-192.69 69.46 2 139.77 5.2197 207.22 23.53 64.19 17.25 128.4 42.51 178.69 87.2 26.08 23.94 46.61 56.11 50.07 91.95 3.81 49.26 0.61 98.701 1.9 148.03 49.6 0.24 99.239 0.0994 148.86 0.0594 2.37-194.69-28.579-394.06-118.07-568.79-46.5-90.84-108.6-174.2-185.6-241.34-122.4-108.61-284.8-171.99-448.4-172.55zm-308.5 172.17c-1.7962 0.0363-3.6172 0.33594-5.4235 0.93594-13.74 3.17-18.941 22.851-8.8312 32.561 9.41 11.28 31.351 6.6297 34.011-8.3203 4.13-12.784-7.1832-25.43-19.756-25.177zm-134.4 30.38c-65.74 38.8-131.55 79.029-187.22 131.81-68.21 62.29-119.61 143.64-141.12 233.89-4.1 18.78-11.671 37.85-9.5609 57.33 2.65 8.86 12.19-0.67907 15.77-4.1391 46.34-53.42 79.98-116.8 128.57-168.42 15.86-14.94 34.26-26.85 52.75-38.25 72.06-43.23 149.16-79.13 230.18-101.83-24.66-40.5-53.26-79.311-89.37-110.39zm-498.45 43.556c-2.7737-0.0762-5.7412 1.1688-7.7312 3.2938-16.54 16.91-23.58 40.07-32.62 61.38-20.01 48.04-54.049 88.14-89.709 125.3-9.34 11.48-24.61 24.771-19.87 41.161 3.63 12.44-1.0794 25.24-6.6094 36.35-22.92 41.16-57.301 75.44-76.111 119-2.96 6.31 0.4597 14.249 8.0797 12.839 41.28-7.75 71.53-43.849 100.07-69.289 0.22 469.21-0.09 938.48 0.15 1407.7-0.29 51.95 0.22 103.9-0.3 155.86 7.15 12.2 15.101 23.931 22.511 35.991 1.58-62.61 0.42-125.3 0.55-187.93 0.58-479.75-0.3612-959.54 0.4688-1439.3 10.13-14.9 22.46-29.391 25.75-47.731 17.03-65.42 51.251-124.38 76.211-186.79 7.9-19.73 15.09-42.78 5.7297-63.23-1.215-3.16-3.795-4.5581-6.5688-4.6344zm854.81 193.75c-53.39 13.73-106.41 30.031-156.25 53.841-69.44 33.05-135.31 85.031-163.01 159.04-1.83 5.96-3.5497 11.959-5.1797 17.989-21.19 84.28-3.55 172.05 12.65 255.61 2.03 19.54 3.4497 40.339 14.58 57.189 4.67 7.35 13.19 13.901 22.4 11.611 45.75-1.65 91.42 4.9588 137.2 3.4187 12.6 1.13 19.841-11.66 25.191-21.03 19.22-33.92 4.0791-73.519 4.0891-109.89-3.35-73.02-4.6794-147.66 14.241-218.89 19.06-75.13 82.651-131.43 94.091-208.89zm-956.1 1779c-8.01 8.22-15.28 17.179-23.95 24.759 1.93 405.46 0.2406 811.08 0.8406 1216.6-34.36 4.35-67.25 22.939-86.02 52.459-20.89 31.09-25.2 72.489-11.18 107.21 9.52 26.25 31.73 44.761 45.18 68.791 14.26 24.36 31.42 52.24 23.87 81.58-3.05 10.96-20.901 4.65-21.891 16.7-2.5 10.09 9.1697 16.881 17.78 12.761 22.57-3.89 32.731-30.891 28.731-51.381-5.68-41.01-30.401-76.079-54.941-108.21-15.69-18.13-25.589-42.051-23.609-66.291-0.12-41.68 32.119-80.01 72.639-88.55 43.84-11.31 93.02 14.73 108.68 57.12 13.52 32.06 5.9103 70.79-16.63 96.9-25.55 32.92-50.87 69.411-56.28 111.81-1.46 19.91 6.7003 44.389 28.87 48.669 8.78 4.05 20.99-3.1588 18.2-13.369-1.84-8.94-12.94-8.19-19.32-11.6-9.28-13.95-3.86-31.681 0.8-46.261 12.09-31.44 32.65-58.509 53.02-84.959 30.66-42.33 26.78-105-8.2297-143.61-19.38-22.27-47.341-36.499-76.641-39.639-0.03-413.83-0.1903-827.67 0.08-1241.5zm1460.9 126.72c-26.43 23.55-34.731 61.979-24.661 95.319 6.39-32.23 16.681-63.489 24.661-95.319zm209.04 45.069c-2.8 12.27-4.7891 24.731-7.9391 36.941-1.64 17.14-22.981 13.66-35.011 16.17-10.28 34.89-28.229 75.429-65.159 88.009-41.58 4.23-62.2-42.549-76.15-74.309-7.92 12.8-20.23 27.1-37.23 22.9 12.55 34.98 31.719 68.83 59.709 93.83-22.08 1.96-44.419 4.3003-66.609 3.0703-13.91-2.29-27.681-17.181-42.161-11.961-1.17 16.68-1.1591 34.041 0.9609 50.791 0.12 5.14 5.9697 8.85 10.73 6.5 34.86-14.25 73.709-12.04 110.69-13.87-5.01 69.47-3.5894 140.52-15.059 208.85 12.84 12.58 34.419 2.4197 50.259 5.1297 12.82-1.07 40.92 3.6712 39.87-17.019-13.2-65.07-17.909-131.63-24.139-197.65 33.61 1.67 67.509 2.2397 100.74 8.0797 9.01 1.68 17.451 9.71 27.041 5.5 6.94-13.64 1.4697-30.01 3.7797-44.55 0.03-4.11 2.0903-11.931-3.8297-13.141-17.64 0.14-31.46 15.97-49.45 13.87-18.12-0.56-36.191-2.07-54.241-3.5 28.9-26.16 47.821-61.38 61.261-97.52 9.1-27.28 19.669-57.68 11.939-86.12z" fill="#002758"/>
<path id="path6" d="m4319.3 20.32c31.71-10.2 64.84-16.69 98.23-16.36 33.78 5.14 55.18 35.87 71.13 63.35 32.26 59.89 49.13 126.61 62.01 193 9.06 52.89 17.38 106.82 12.62 160.56-37.97 29.82-78.21 57.61-111.46 92.99-11.88 13.48-24.91 28.65-24.24 47.84-1.78 42.16 0.8 84.39 2.24 126.53-0.45-3.01 0.36-7.69-3.59-5.97-35.7 9.28-75.99 9.47-108.38-10.15-8.36-5.7-17.92-11.68-20.74-22.06 19.06-75.13 82.65-131.43 94.09-208.89 6.53-56.65-41.64-99.86-86.16-125.49-60.07-3.14-121.51-18.77-180.83-1.43-24.66-40.5-53.26-79.31-89.37-110.39 22.33-15.23 41.05-35.02 62.35-51.62 66.95-54.38 139.9-103.86 222.1-131.91m-155.44 154.09c-13.74 3.17-18.94 22.85-8.83 32.56 9.41 11.28 31.35 6.63 34.01-8.32 4.72-14.61-10.73-29.04-25.18-24.24z" fill="#006f0f"/>
<path id="path22" d="m4850.4 656.71c-58.09 72.54-124.91 139.81-205.92 186.55-3.1563 1.8624-4.5635 1.1632-5.0953-0.79688-0.9253 37.481-0.8076 75.048 0.5953 112.51 0.87 19.32-9.89 39.7-29.85 44.18-34.32 6.45-69.471 5.3203-104.21 6.9203-16.31-0.62-38.2 0.9203-46.93-16.13-14.44-30.64-13.399-65.351-17.859-98.241-53.33-0.7-107.17-6.7594-158.21-22.759-0.01 36.37 15.131 75.969-4.0891 109.89-5.35 9.37-12.591 22.16-25.191 21.03-45.78 1.54-91.45-5.0687-137.2-3.4187-9.21 2.29-17.73-4.261-22.4-11.611-11.13-16.85-12.55-37.649-14.58-57.189-16.2-83.56-33.84-171.33-12.65-255.61-2.96-4.89-5.7994-9.8494-8.2094-15.009-54.15 9.51-106.65 35.659-143.55 77.009-60.99 67.18-74.93 167.71-47.72 252.52-0.16 11.91-5.3206 23.461-6.0406 35.441 77.19 10.86 154.57 21.01 232.31 27.05-0.34 7.95-1.9803 15.809-2.4203 23.759 11.38 31.27 24.55 61.84 37.55 92.48 29.04 69.43 43.379 143.81 55.209 217.8 13.18 86.22 24.12 172.92 30.92 259.85 1.43-0.73 2.88-1.4203 4.35-2.0703 110.82-56.25 213.92-126.42 314.38-199.28 61.08-45.68 122.34-91.65 176.79-145.28 27.43-89.53 65.55-175.28 101.83-261.46 2.81 6.1 4.0397 12.729 5.8797 19.169 88.06-11.26 175.5-26.99 262.2-46.05 1.83-7.82 0.3103-16.129 0.7703-24.069-1.29-49.33 1.91-98.771-1.9-148.03-3.46-35.84-23.99-68.01-50.07-91.95-50.29-44.69-114.5-69.95-178.69-87.2zm-211.02 185.75c0.075-3.0459 0.1705-6.0896 0.2594-9.1343-0.3918 3.446-0.8333 7.0191-0.2594 9.1343zm0.2594-9.1343c0.331-2.9111 0.6241-5.7295 0.2156-7.4578-0.081 2.485-0.143 4.9718-0.2156 7.4578zm448.3 359.67c-0.23 3.13 0.1 6.4709-0.3203 9.6609-75.43 7.4-151 13.5-226.63 18.38 19.26 88.48 39.53 177.77 39.87 268.76-4.87 49.1-0.2003 98.351 3.8797 147.33 12.76 131.11 30.83 261.64 50.2 391.92 50.2 2.41 100.47 2.1209 150.73 1.8109 1.19-22.58-1.5891-45.1-0.8391-67.68-9.15-256.32-8.3606-515.47-16.891-770.18zm-1257.4 7.8c-14.37 99.37-31.29 199.74-24.85 300.45-35.96 37.6-62.02 83.011-87.38 128.09-48.67 89.49-99.431 177.95-156.21 262.6 42.5 25.2 86.05 48.649 128.98 73.039 92.5-122.9 183.8-246.8 271.9-373 24.4-39.08 56.969-75.219 67.909-121.11 20.29-80.77 30.901-163.54 42.141-245.94-2.4 3.57-7.3194 1.0006-10.709 1.5906-74.53-6.13-148.97-13.341-223.18-22.541-3.02-0.67-6.7091-0.4-8.5891-3.2zm-472.51 767.7c-34.607 0.2296-66.811 28.871-101.89 15.48-15.75-9.69-41.711-13.479-52.541 4.8109-5.12 9.7 3.6497 19.899 12.48 23.219 31.67 13.13 65.951 17.89 98.881 26.65 21.78-5.59 46.04-17.4 68-7.75 16.71 21.63 4.3597 51.651 0.4297 75.741 10.47 10.56 19.669 22.259 28.359 34.359 0.52-51.96 0.01-103.91 0.3-155.86-16.73-3.77-33.09-9.6603-48.9-16.47-1.7142-0.1346-3.4215-0.191-5.1235-0.1797zm76.784 20.57c-0.13 62.63 1.03 125.32-0.55 187.93 4.45 8.48 10.26 16.21 14.38 24.87-3.77 5.97-8.59 11.25-12.55 17.12 68.12-22.59 134.12-68.821 161.95-137.09-44.27-7.12-78.301-44.341-95.911-83.491-22.51-2.48-45.009-5.3891-67.319-9.3391zm1540.5 172.77c-0.73 1.89-1.0703 4.33-3.4203 5-32.13 17.4-67.199 28.839-98.809 47.289-8.81 5.45-19.401 11.9-20.841 23.2-5.64 26.43-13.419 52.451-17.459 79.191-13.66 15.08-27.191 30.41-40.691 45.58 1.36 8.91 2.8503 17.82 4.0703 26.77 39.36-6.03 71.299-34.15 101.16-58.55-0.96 5.54-2.1591 11.05-3.3891 16.57-7.98 31.83-18.271 63.089-24.661 95.319-3.25 13.96-7.2891 37.121 12.211 39.461 17 4.2 29.31-10.1 37.23-22.9 5.11-8.44 8.8194-18.46 16.959-24.5 40.97 7.31 82.66 11.48 124.35 10.8 12.03-2.51 33.371 0.9697 35.011-16.17 3.15-12.21 5.1391-24.671 7.9391-36.941 9.01-48.21 16.101-97.27 14.461-146.4-0.16-23.55-11.45-44.93-9.7-68.63-43.81 1.73-87.65 0.8809-131.47 1.1109-1.68-5.27-2.01-10.82-2.95-16.2zm-184.43 312.2c-102.51 8.69-205.12 16.669-307.92 20.839 22.69 69.05 43.51 138.91 70.67 206.43 7.79 19.38 16.749 38.6 30.419 54.6 19.63 36.27 32.51 75.68 46.72 114.27 59.88 175.17 110.88 353.48 151.99 534 12.29 57.42 24.7 115.13 28.97 173.82 0.56 2.51-2.2203 3.8303-3.8703 5.1703-57 38.32-112.34 80.079-174.04 110.71-50.1 18.69-100.17 40.15-153.7 46.38-15 3.42-31.219-7.2294-45.089 1.8406-13.96 9-12.5 29.831-2.35 41.191 17.94 20.18 45.629 26.669 71.219 30.759 74.91 7.81 149.97 14.18 225.15 18.85 49.37 1.62 98.921 6.9703 148.18 1.2703 37.97-0.53 78.459 10.909 114.62-5.2406 33.28-16.15 39.82-59.21 34.42-92.28-10.46-73.24-41.18-141.68-73.3-207.64 0.13-195.49-7.9797-392.15-40.68-585.36-11.32-65.41-25.87-130.48-47.77-193.22-16.44-46.81-37.11-92.89-68.25-131.87 4.78-48.18-1.5091-96.499-5.3891-144.52zm-677.85 7.9297c-10.74 56.01-22.81 112.11-25.97 169.21 0.6 16.63-0.3609 35.46 10.139 49.58 9.81 11.62 10.261 27.48 13.361 41.65 8.89 71.5 7.3497 143.69 7.4297 215.6-2.91 136.75-10.52 273.49-25.53 409.49-7.88 64.9-15.921 130.05-32.541 193.41-0.75 4.95-5.6594 7.0909-9.1594 9.9609-54.1 40.25-106.73 83.36-165.9 116.07-59.82 23.38-119.86 58.149-186.2 52.619-18.82 2.95-23.781 27.901-12.411 41.181 19.76 24.92 54.18 29.629 83.97 31.969 114.5 5.29 229.3 12.451 343.85 5.4406 43.46-8.95 89.91 6.5806 131.82-11.209 25.72-10.88 36.43-40.011 37.08-66.041 1.42-65.77-24.28-128.18-52.8-186.15 53.88-186.09 100.35-374.84 127.71-566.81 13.28-101.25 23.13-204.27 9.1797-305.97 6.04-61.83 18.919-122.75 28.889-183.97-94.31-0.62-190.08 3.8903-282.92-16.03z" fill="#c45300"/>
<path id="path32" d="m4710.4 1296.3c-54.45 53.63-115.71 99.6-176.79 145.28-100.46 72.86-203.56 143.03-314.38 199.28 90.63-16.32 180.38-37.739 269.77-59.869 44.56-12.24 91.139-22.531 132.26-43.241 32.42-79.3 66.401-158.56 89.141-241.45zm-1346.3 730.95c-16.442 0.1665-33.377 7.3963-49.031 11.414-32.23 11.33-64.591 23.92-92.831 43.47-13.89 8.88-20.89 31.07-8 43.77 11.87 12.1 29.671 9.7106 44.931 9.5406 23.3 35.33 46.509 71.04 74.719 102.75 10.26 10.16 20.001 22.66 34.541 26.65 16.82 1.66 30.83-9.6709 42.83-19.911 8.67-7.58 15.94-16.539 23.95-24.759 0.25-0.29 0.7406-0.8797 0.9906-1.1797 3.96-5.87 8.78-11.15 12.55-17.12-4.12-8.66-9.9297-16.39-14.38-24.87-7.41-12.06-15.361-23.791-22.511-35.991-8.69-12.1-17.889-23.799-28.359-34.359 3.93-24.09 16.28-54.111-0.4297-75.741-6.1762-2.7141-12.535-3.7292-18.969-3.6641z" fill="#ec9f00"/>
<path id="path36" d="m4215 1643.8c7.29 97.46 3.43 196.37 22.43 292.75 20.68 105.49 69.97 202.41 123.21 294.79 48.48 82.74 124.21 148.19 211.29 187.72 72.06 33.2 150.99 50.5 230.14 53.78-3.78 0.41-7.4 1.13-11.17 1.23-102.51 8.69-205.12 16.67-307.92 20.84-28.97 1.79-58.02 2.19-87.01 3.12-94.31-0.62-190.08 3.89-282.92-16.03-4.88-2.12-15.4-0.65-12.86-8.77 29.22-225.18 59.1-450.3 90.83-675.14 7.73-51.47 14.54-103.1 23.98-154.29z" fill="#e6e6e6"/>
</g>
</svg>
